<?xml version="1.0" encoding="utf-8"?>
<!-- Generator: Adobe Illustrator 18.1.1, SVG Export Plug-In . SVG Version: 6.00 Build 0)  -->
<!DOCTYPE svg PUBLIC "-//W3C//DTD SVG 1.1//EN" "http://www.w3.org/Graphics/SVG/1.1/DTD/svg11.dtd">
<svg version="1.1" id="Layer_1" xmlns="http://www.w3.org/2000/svg" xmlns:xlink="http://www.w3.org/1999/xlink" x="0px" y="0px"
	 viewBox="0 0 106 106" enable-background="new 0 0 106 106" xml:space="preserve">
<g>
	
		<path fill="none" stroke="#FFFFFF" stroke-width="6.9818" stroke-linecap="round" stroke-linejoin="round" stroke-miterlimit="10" d="
		M58.5,86.5c-2.6,0.4-5.2,0.5-7.9,0.5c-4.7,0-12.1-0.9-16.4-2c-2.8-0.7-6.5,7.7-14.2,6.1c0,0,7-9.1,1.9-12.2
		C11.5,72.5,5,62.2,5,50.8c0-20,20.4-36.2,45.6-36.2s45.6,16.2,45.6,36.2"/>
	
		<path fill="none" stroke="#FFFFFF" stroke-width="6.9818" stroke-linecap="round" stroke-linejoin="round" stroke-miterlimit="10" d="
		M40.2,64.3c0,13.4,13.6,24.2,30.4,24.2c3.1,0,8.1-0.6,10.9-1.3c1.9-0.5,4.3,5.1,9.5,4.1c0,0-4.7-6.1-1.3-8.2
		c6.9-4.3,11.3-11.2,11.3-18.8c0-13.4-13.6-24.2-30.4-24.2S40.2,51,40.2,64.3z"/>
</g>
</svg>
